<svg xmlns="http://www.w3.org/2000/svg" aria-hidden="true" style="position:absolute;width:0;height:0;overflow:hidden">
    <defs>
        <symbol id="icon-instagram" viewBox="0 0 32 32">
            <path
                d="M24.575 0h-17.15c-4.1 0.006-7.419 3.325-7.425 7.425v17.144c0.006 4.106 3.325 7.425 7.425 7.431h17.144c4.1-0.006 7.425-3.325 7.425-7.425v-17.15c0-4.1-3.319-7.419-7.419-7.425zM29.712 24.575c0 2.837-2.3 5.144-5.144 5.144h-17.144c-2.838 0-5.144-2.3-5.144-5.144v-17.15c0-2.838 2.3-5.144 5.144-5.144h17.144c2.837 0 5.144 2.3 5.144 5.144v17.15z">
            </path>
            <path
                d="M16 8c-4.738 0-8.569 3.838-8.569 8.569s3.838 8.575 8.569 8.575 8.569-3.837 8.569-8.569c0-2.369-0.962-4.512-2.512-6.063-1.544-1.55-3.681-2.512-6.037-2.512h-0.019zM16 22.856c-3.469 0-6.287-2.813-6.287-6.287s2.813-6.287 6.287-6.287 6.288 2.813 6.288 6.287-2.819 6.288-6.288 6.288z">
            </path>
            <path
                d="M27.431 6.856c0 1.263-1.024 2.288-2.288 2.288s-2.288-1.024-2.288-2.287c0-1.263 1.024-2.287 2.288-2.287s2.288 1.024 2.288 2.287z">
            </path>
        </symbol>
        <symbol id="icon-amazon" viewBox="0 0 32 32">
            <path
                d="M16.881 9.906c-1.881.162-3.769.344-5.588.887-3.737 1.119-5.644 3.644-5.581 7.375.056 3.363 2 5.594 5.344 5.95 2.156.231 4.219-.125 5.969-1.556.5-.406.969-.856 1.413-1.25.725.8 1.406 1.594 2.131 2.344.462.475.906.456 1.406.031.931-.794 1.856-1.6 2.788-2.4.5-.438.569-.819.119-1.331-1.1-1.244-1.481-2.681-1.45-4.325.05-2.938.025-5.881-.069-8.819-.075-2.256-1.206-3.944-3.281-4.862-3.212-1.419-6.45-1.387-9.637.012-2.15.95-3.469 2.644-3.981 4.944-.169.756.031 1.037.794 1.131 1.1.131 2.2.275 3.294.419.606.081.944-.1 1.075-.706.394-1.806 2.175-2.7 3.869-2.45 1.094.162 1.906.856 2.075 1.9.137.85.125 1.725.181 2.581-.144.037-.2.063-.256.069-.206.025-.413.037-.613.056zM16.8 18.5c-.55.831-1.25 1.425-2.244 1.594-1.606.269-2.781-.762-2.9-2.494-.156-2.269 1.006-3.825 3.244-4.25.9-.175 1.831-.219 2.794-.325.006 1.956.2 3.813-.894 5.475z" />
            <path
                d="M27.031 25.081c-.156.044-.306.113-.45.175-2.137.913-4.331 1.631-6.613 2.081-2.156.425-4.325.637-6.519.438-2.7-.25-5.213-1.119-7.619-2.313-1.531-.762-3.025-1.594-4.544-2.394-.475-.25-.912-.175-1.156.169-.244.337-.156.788.269 1.125 1.506 1.188 2.975 2.431 4.556 3.512 2.944 2.019 6.194 3.225 10.425 3.225 3.444-.087 7.225-1.137 10.725-3.175a21.58 21.58 0 0 0 1.806-1.2c.444-.325.538-.806.313-1.212-.219-.394-.706-.575-1.194-.431z" />
            <path
                d="M30.288 21.75c-1.663-.169-3.275.031-4.681 1.063-.325.238-.519.563-.337.956.169.381.519.431.9.375.731-.1 1.462-.188 2.194-.275l.006.056c.269 0 .531-.006.8 0 .306.006.469.137.4.469-.075.363-.131.725-.238 1.075-.206.675-.481 1.331-.663 2.019-.056.212.012.575.163.706.175.144.512.169.762.131.175-.025.35-.206.494-.35 1.125-1.163 1.694-2.581 1.863-4.163.175-1.556-.1-1.906-1.663-2.063z" />
        </symbol>
        <symbol id="icon-email" viewBox="0 0 32 32">
            <path d="M1.106 5.063v1.106h28.681v19.663H2.212V5.063H0v22.981h32V3.957H0v1.106z" />
            <path
                d="m.581 6.106 12.856 13.038c.35.35.756.637 1.219.813s.931.231 1.394.231c.462 0 .931-.056 1.394-.231s.875-.406 1.219-.813L31.538 6.225l-1.569-1.569L17.05 17.568c-.119.119-.231.231-.406.294-.175.056-.35.119-.581.119a1.91 1.91 0 0 1-.581-.119 1.176 1.176 0 0 1-.463-.294L2.213 4.537.582 6.106z" />
            <path
                d="m2.619 26.994 9.831-10.063-1.569-1.512L1.05 25.425zM30.837 25.306l-9.544-9.769-1.631 1.569 9.6 9.775z" />
        </symbol>
    </defs>
</svg>